<?xml version="1.0" encoding="UTF-8"?>
<svg xmlns="http://www.w3.org/2000/svg" xmlns:xlink="http://www.w3.org/1999/xlink" width="998pt" height="328pt" viewBox="0 0 998 328" version="1.1">
<defs>
<clipPath id="clip1">
  <path d="M 0.0585938 0.171875 L 281 0.171875 L 281 328 L 0.0585938 328 Z M 0.0585938 0.171875 "/>
</clipPath>
</defs>
<g id="surface1">
<path style=" stroke:none;fill-rule:nonzero;fill:rgb(6.355286%,25.868225%,47.70813%);fill-opacity:1;" d="M 457.472656 58.257812 C 457.324219 46.773438 451.941406 40.648438 442.625 40.648438 C 434.035156 40.648438 428.363281 46.929688 427.78125 58.257812 Z M 442.914062 108.667969 C 419.484375 108.667969 404.203125 91.964844 404.203125 67.300781 C 404.203125 43.09375 420.503906 25.628906 443.9375 25.628906 C 466.207031 25.628906 480.175781 41.410156 480.175781 67.914062 C 480.175781 68.984375 480.175781 70.058594 480.175781 71.128906 L 427.492188 71.128906 C 427.492188 84.921875 433.457031 92.429688 443.789062 92.429688 C 451.066406 92.429688 456.59375 88.136719 458.636719 80.628906 L 479.738281 82.46875 C 474.789062 99.167969 461.402344 108.667969 442.914062 108.667969 "/>
<path style=" stroke:none;fill-rule:nonzero;fill:rgb(6.355286%,25.868225%,47.70813%);fill-opacity:1;" d="M 974.925781 58.257812 C 974.773438 46.773438 969.390625 40.648438 960.074219 40.648438 C 951.484375 40.648438 945.8125 46.929688 945.230469 58.257812 Z M 960.363281 108.667969 C 936.933594 108.667969 921.648438 91.964844 921.648438 67.300781 C 921.648438 43.09375 937.949219 25.628906 961.386719 25.628906 C 983.652344 25.628906 997.625 41.410156 997.625 67.914062 C 997.625 68.984375 997.625 70.058594 997.625 71.128906 L 944.9375 71.128906 C 944.9375 84.921875 950.90625 92.429688 961.238281 92.429688 C 968.519531 92.429688 974.046875 88.136719 976.085938 80.628906 L 997.1875 82.46875 C 992.234375 99.167969 978.851562 108.667969 960.363281 108.667969 "/>
<path style=" stroke:none;fill-rule:nonzero;fill:rgb(6.355286%,25.868225%,47.70813%);fill-opacity:1;" d="M 482.34375 27.773438 L 507.035156 27.773438 L 518.507812 74.03125 L 529.46875 27.773438 L 549.886719 27.773438 L 561.363281 74.796875 L 575.03125 27.773438 L 593.464844 27.773438 L 570.765625 106.523438 L 550.066406 106.523438 L 537.042969 55.347656 L 524.019531 106.523438 L 505.140625 106.523438 L 482.34375 27.773438 "/>
<path style=" stroke:none;fill-rule:nonzero;fill:rgb(6.355286%,25.868225%,47.70813%);fill-opacity:1;" d="M 635.113281 41.5625 C 625.144531 41.5625 618.273438 50.144531 617.984375 66.992188 C 617.699219 83.847656 624.59375 92.582031 634.246094 92.582031 C 641.808594 92.582031 648.949219 86.761719 650.246094 76.492188 L 669.871094 78.789062 C 667.308594 97.023438 652.796875 108.667969 632.683594 108.667969 C 609.355469 108.667969 593.230469 91.964844 593.652344 67.300781 C 594.078125 42.175781 610.9375 25.628906 635.867188 25.628906 C 654.847656 25.628906 667.851562 36.660156 670.105469 55.503906 L 649.773438 57.644531 C 648.503906 47.230469 642.03125 41.5625 635.113281 41.5625 "/>
<path style=" stroke:none;fill-rule:nonzero;fill:rgb(6.355286%,25.868225%,47.70813%);fill-opacity:1;" d="M 699.84375 83.078125 C 699.84375 89.511719 703.929688 93.34375 711.203125 93.34375 C 720.367188 93.34375 727.355469 85.683594 727.355469 74.960938 L 727.355469 67.914062 C 709.160156 68.222656 699.84375 73.738281 699.84375 83.078125 Z M 727.796875 93.804688 C 722.703125 103.304688 714.113281 108.511719 703.046875 108.511719 C 686.753906 108.511719 676.855469 99.011719 676.855469 84.457031 C 676.855469 65.925781 693.734375 56.117188 727.355469 55.8125 L 727.355469 52.4375 C 727.355469 44.476562 723.140625 40.339844 714.839844 40.339844 C 705.675781 40.339844 700.429688 44.167969 699.269531 51.363281 L 678.894531 49.066406 C 682.386719 33.59375 694.902344 25.628906 716.003906 25.628906 C 739.582031 25.628906 748.75 34.820312 748.75 56.417969 L 748.75 91.351562 C 748.75 97.789062 749.335938 102.847656 750.933594 106.523438 L 729.253906 106.523438 C 728.371094 102.847656 727.9375 98.554688 727.796875 93.804688 "/>
<path style=" stroke:none;fill-rule:nonzero;fill:rgb(6.355286%,25.868225%,47.70813%);fill-opacity:1;" d="M 775.757812 81.855469 C 777.648438 89.058594 784.191406 93.191406 793.949219 93.191406 C 802.242188 93.191406 806.90625 89.511719 806.90625 84.613281 C 806.90625 77.714844 800.351562 78.027344 788.710938 75.570312 C 770.082031 71.742188 760.761719 65.460938 760.761719 51.214844 C 760.761719 36.503906 772.695312 25.476562 792.488281 25.476562 C 808.648438 25.476562 819.5625 32.671875 824.222656 46.007812 L 806.613281 49.375 C 803.984375 43.09375 799.1875 40.488281 791.617188 40.488281 C 784.34375 40.488281 780.410156 43.246094 780.410156 48.304688 C 780.410156 55.191406 787.980469 54.890625 802.097656 57.953125 C 819.125 61.632812 827.429688 67.757812 827.429688 81.546875 C 827.429688 97.023438 814.324219 108.203125 792.058594 108.203125 C 774.011719 108.203125 761.203125 99.167969 757.5625 84.457031 L 775.757812 81.855469 "/>
<path style=" stroke:none;fill-rule:nonzero;fill:rgb(6.355286%,25.868225%,47.70813%);fill-opacity:1;" d="M 889.1875 0.171875 L 911.785156 0.171875 L 911.785156 106.523438 L 889.1875 106.523438 Z M 889.1875 0.171875 "/>
<path style=" stroke:none;fill-rule:nonzero;fill:rgb(6.355286%,25.868225%,47.70813%);fill-opacity:1;" d="M 428.734375 170.664062 C 431.984375 165.230469 435.820312 161.152344 440.242188 158.441406 C 444.65625 155.722656 449.648438 154.363281 455.230469 154.363281 C 460.027344 154.363281 464.050781 155.320312 467.308594 157.226562 C 470.5625 159.136719 473.171875 162.15625 475.132812 166.277344 C 477.097656 170.40625 478.078125 175.03125 478.078125 180.152344 L 478.078125 215.886719 C 478.078125 218.550781 478.664062 220.449219 479.851562 221.566406 C 481.03125 222.691406 483.007812 223.253906 485.796875 223.253906 L 490.894531 223.253906 L 490.894531 229.015625 L 452.449219 229.015625 L 452.449219 223.253906 L 456.097656 223.253906 C 459.511719 223.253906 461.894531 222.710938 463.238281 221.613281 C 464.585938 220.527344 465.261719 218.894531 465.261719 216.710938 L 465.261719 185.460938 C 465.261719 178.65625 464.234375 173.625 462.175781 170.355469 C 459.300781 165.675781 454.929688 163.339844 449.078125 163.339844 C 443.269531 163.339844 438.425781 165.703125 434.554688 170.421875 C 430.671875 175.152344 428.734375 181.308594 428.734375 188.894531 L 428.734375 215.933594 C 428.734375 218.582031 429.335938 220.464844 430.546875 221.582031 C 431.761719 222.699219 433.75 223.253906 436.53125 223.253906 L 441.550781 223.253906 L 441.550781 229.015625 L 402.464844 229.015625 L 402.464844 223.253906 L 407.507812 223.253906 C 410.046875 223.253906 411.972656 222.726562 413.296875 221.6875 C 414.617188 220.644531 415.277344 219.34375 415.277344 217.769531 L 415.277344 170.335938 C 415.277344 167.199219 414.4375 164.832031 412.765625 163.207031 C 411.085938 161.589844 408.679688 160.769531 405.535156 160.769531 L 401.816406 160.769531 L 401.816406 155.644531 L 427.773438 154.34375 L 428.734375 170.664062 "/>
<path style=" stroke:none;fill-rule:nonzero;fill:rgb(6.355286%,25.868225%,47.70813%);fill-opacity:1;" d="M 513.03125 125.207031 C 515.378906 125.207031 517.441406 126.097656 519.222656 127.875 C 520.992188 129.644531 521.882812 131.738281 521.882812 134.140625 C 521.882812 136.488281 521.015625 138.519531 519.300781 140.246094 C 517.570312 141.96875 515.507812 142.828125 513.105469 142.828125 C 510.710938 142.828125 508.632812 141.964844 506.890625 140.210938 C 505.128906 138.460938 504.261719 136.414062 504.261719 134.054688 C 504.261719 131.714844 505.144531 129.644531 506.925781 127.875 C 508.695312 126.097656 510.734375 125.207031 513.03125 125.207031 Z M 492.410156 155.964844 L 521.882812 155.003906 L 521.882812 218.015625 C 521.882812 219.742188 522.300781 220.960938 523.136719 221.6875 C 524.335938 222.726562 525.847656 223.253906 527.683594 223.253906 L 535.976562 223.253906 L 535.976562 229.015625 L 494.007812 229.015625 L 494.007812 223.253906 L 501.769531 223.253906 C 504.0625 223.253906 505.746094 222.699219 506.820312 221.574219 C 507.886719 220.453125 508.425781 218.824219 508.425781 216.6875 L 508.425781 170.566406 C 508.425781 167.648438 507.585938 165.449219 505.914062 163.964844 C 504.234375 162.480469 501.75 161.738281 498.453125 161.738281 L 492.410156 161.738281 L 492.410156 155.964844 "/>
<path style=" stroke:none;fill-rule:nonzero;fill:rgb(6.355286%,25.868225%,47.70813%);fill-opacity:1;" d="M 837.46875 125.207031 C 839.8125 125.207031 841.878906 126.097656 843.652344 127.875 C 845.425781 129.644531 846.316406 131.738281 846.316406 134.140625 C 846.316406 136.488281 845.445312 138.519531 843.734375 140.246094 C 842 141.96875 839.9375 142.828125 837.542969 142.828125 C 835.144531 142.828125 833.0625 141.964844 831.320312 140.210938 C 829.5625 138.460938 828.691406 136.414062 828.691406 134.054688 C 828.691406 131.714844 829.574219 129.644531 831.355469 127.875 C 833.128906 126.097656 835.167969 125.207031 837.46875 125.207031 Z M 816.84375 155.964844 L 846.316406 155.003906 L 846.316406 218.015625 C 846.316406 219.742188 846.734375 220.960938 847.566406 221.6875 C 848.773438 222.726562 850.28125 223.253906 852.117188 223.253906 L 860.414062 223.253906 L 860.414062 229.015625 L 818.4375 229.015625 L 818.4375 223.253906 L 826.199219 223.253906 C 828.496094 223.253906 830.183594 222.699219 831.253906 221.574219 C 832.320312 220.453125 832.859375 218.824219 832.859375 216.6875 L 832.859375 170.566406 C 832.859375 167.648438 832.019531 165.449219 830.347656 163.964844 C 828.671875 162.480469 826.183594 161.738281 822.886719 161.738281 L 816.84375 161.738281 L 816.84375 155.964844 "/>
<path style=" stroke:none;fill-rule:nonzero;fill:rgb(6.355286%,25.868225%,47.70813%);fill-opacity:1;" d="M 530.882812 155.644531 L 567.09375 155.644531 L 567.09375 161.09375 C 562.273438 161.199219 559.191406 161.625 557.863281 162.375 C 556.527344 163.128906 555.859375 164.203125 555.859375 165.601562 C 555.859375 166.753906 556.09375 167.882812 556.554688 169.023438 L 575.894531 212.359375 L 593.726562 170.363281 C 593.984375 169.636719 594.117188 168.914062 594.117188 168.179688 C 594.117188 164.390625 590.332031 162.03125 582.785156 161.09375 L 582.785156 155.644531 L 613.226562 155.644531 L 613.226562 161.09375 C 610.140625 161.40625 607.683594 162.230469 605.855469 163.574219 C 604.023438 164.917969 602.605469 166.710938 601.613281 168.984375 L 574.652344 231.265625 L 570.304688 231.265625 L 541.726562 167.253906 C 540.671875 165 539.398438 163.421875 537.910156 162.523438 C 536.417969 161.617188 534.074219 161.148438 530.882812 161.09375 L 530.882812 155.644531 "/>
<path style=" stroke:none;fill-rule:nonzero;fill:rgb(6.355286%,25.868225%,47.70813%);fill-opacity:1;" d="M 625.03125 187.367188 L 657.421875 187.367188 C 659.335938 187.367188 660.820312 186.730469 661.882812 185.445312 C 662.945312 184.167969 663.480469 181.984375 663.480469 178.898438 C 663.480469 173.15625 661.664062 168.273438 658.015625 164.25 C 654.371094 160.21875 650.085938 158.214844 645.132812 158.214844 C 639.601562 158.214844 634.90625 160.640625 631.058594 165.5 C 627.203125 170.363281 625.195312 177.652344 625.03125 187.367188 Z M 677.902344 192.816406 L 625.03125 192.816406 C 625.296875 203.988281 627.398438 211.871094 631.355469 216.464844 C 635.890625 221.628906 641.664062 224.214844 648.664062 224.214844 C 659.003906 224.214844 667.304688 218.449219 673.574219 206.910156 L 678.546875 209.085938 C 670.90625 223.878906 659.894531 231.265625 645.484375 231.265625 C 635.652344 231.265625 627.394531 227.703125 620.683594 220.601562 C 613.96875 213.488281 610.613281 204.402344 610.613281 193.3125 C 610.613281 181.402344 613.917969 171.765625 620.519531 164.417969 C 627.128906 157.078125 635.257812 153.40625 644.929688 153.40625 C 652.023438 153.40625 658.164062 155.242188 663.335938 158.890625 C 668.496094 162.546875 672.382812 167.800781 675 174.636719 C 676.832031 179.441406 677.800781 185.507812 677.902344 192.816406 "/>
<path style=" stroke:none;fill-rule:nonzero;fill:rgb(6.355286%,25.868225%,47.70813%);fill-opacity:1;" d="M 756.015625 201.785156 C 759.257812 210.847656 762.992188 217.113281 767.214844 220.59375 C 771.421875 224.078125 776.617188 225.816406 782.804688 225.816406 C 788.507812 225.816406 792.890625 224.566406 795.949219 222.0625 C 799.015625 219.558594 800.546875 216.390625 800.546875 212.53125 C 800.546875 210.320312 799.984375 208.394531 798.855469 206.730469 C 797.734375 205.0625 796.179688 203.832031 794.191406 203.011719 C 792.195312 202.199219 787.035156 200.996094 778.71875 199.402344 C 770.757812 197.828125 765.214844 196.171875 762.085938 194.449219 C 758.964844 192.726562 756.523438 190.34375 754.785156 187.3125 C 753.039062 184.277344 752.175781 180.980469 752.175781 177.421875 C 752.175781 172.035156 753.953125 167.152344 757.554688 162.757812 C 762.1875 157.160156 768.664062 154.363281 777 154.363281 C 783.351562 154.363281 789.230469 156.417969 794.644531 160.519531 L 799.804688 155.003906 L 803.003906 155.003906 L 805.035156 181.28125 L 799.90625 181.28125 C 797.609375 173.667969 794.5 168.191406 790.578125 164.835938 C 786.660156 161.492188 781.824219 159.816406 776.085938 159.816406 C 771.125 159.816406 767.234375 161.050781 764.414062 163.523438 C 761.585938 165.996094 760.179688 169.003906 760.179688 172.570312 C 760.179688 175.714844 761.476562 178.316406 764.089844 180.390625 C 766.644531 182.519531 771.664062 184.175781 779.15625 185.382812 C 787.847656 186.839844 793.511719 188.074219 796.132812 189.058594 C 800.382812 190.628906 803.675781 193.03125 806.019531 196.28125 C 808.351562 199.535156 809.519531 203.503906 809.519531 208.179688 C 809.519531 214.621094 806.976562 220.085938 801.890625 224.550781 C 796.800781 229.023438 790.339844 231.265625 782.515625 231.265625 C 775.257812 231.265625 768.527344 228.878906 762.320312 224.128906 L 756.601562 230.621094 L 752.449219 230.621094 L 750.886719 201.785156 L 756.015625 201.785156 "/>
<path style=" stroke:none;fill-rule:nonzero;fill:rgb(6.355286%,25.868225%,47.70813%);fill-opacity:1;" d="M 914.476562 155.644531 L 949.714844 155.644531 L 949.714844 161.09375 L 946.417969 161.09375 C 943.324219 161.09375 941.203125 161.492188 940.089844 162.277344 C 938.960938 163.070312 938.398438 164.210938 938.398438 165.6875 C 938.398438 166.347656 938.558594 167.011719 938.878906 167.671875 L 959.417969 211.570312 L 974.769531 175.175781 C 975.859375 172.59375 976.414062 170.0625 976.414062 167.59375 C 976.414062 165.6875 975.648438 164.203125 974.152344 163.148438 C 972.640625 162.089844 969.617188 161.40625 965.101562 161.09375 L 965.101562 155.644531 L 995.53125 155.644531 L 995.53125 161.09375 C 989.753906 161.660156 985.871094 164.242188 983.886719 168.839844 L 956.320312 231.992188 C 951.636719 242.730469 946.964844 250.085938 942.308594 254.0625 C 937.605469 258.089844 932.554688 260.097656 927.167969 260.097656 C 923.246094 260.097656 920.09375 259.019531 917.714844 256.882812 C 915.34375 254.738281 914.144531 252.09375 914.144531 248.957031 C 914.144531 246.605469 914.886719 244.664062 916.34375 243.160156 C 917.808594 241.632812 919.636719 240.871094 921.828125 240.871094 C 923.816406 240.871094 925.488281 241.523438 926.851562 242.816406 C 928.199219 244.101562 928.886719 245.660156 928.886719 247.472656 C 928.886719 248.046875 928.78125 248.816406 928.574219 249.804688 C 928.363281 250.570312 928.261719 251.140625 928.261719 251.511719 C 928.261719 252.753906 929.066406 253.371094 930.695312 253.371094 C 932.425781 253.371094 934.382812 252.757812 936.570312 251.523438 C 938.753906 250.289062 940.789062 248.316406 942.679688 245.59375 C 944.574219 242.871094 947.863281 236.714844 952.570312 227.097656 L 924.769531 167.671875 C 923.765625 165.636719 922.527344 164.117188 921.035156 163.125 C 919.535156 162.128906 917.351562 161.453125 914.476562 161.09375 L 914.476562 155.644531 "/>
<path style=" stroke:none;fill-rule:nonzero;fill:rgb(6.355286%,25.868225%,47.70813%);fill-opacity:1;" d="M 303.097656 0.175781 L 331.964844 0.175781 L 372.230469 65.804688 L 372.203125 0.175781 L 394.722656 0.175781 L 394.722656 106.503906 L 370.683594 106.503906 L 325.632812 32.671875 L 325.582031 106.503906 L 303.097656 106.503906 L 303.097656 0.175781 "/>
<path style=" stroke:none;fill-rule:nonzero;fill:rgb(6.355286%,25.868225%,47.70813%);fill-opacity:1;" d="M 289.71875 122.511719 L 337.828125 122.511719 L 337.828125 128.273438 L 329.773438 128.273438 C 326.929688 128.273438 324.933594 128.746094 323.800781 129.683594 C 322.660156 130.628906 322.097656 132.058594 322.097656 133.984375 L 322.097656 192.128906 C 322.097656 198.964844 322.695312 204.125 323.890625 207.617188 C 325.65625 212.78125 328.898438 216.90625 333.605469 219.976562 C 338.3125 223.058594 344.464844 224.589844 352.0625 224.589844 C 362.570312 224.589844 370.582031 221.871094 376.101562 216.417969 C 381.609375 210.96875 384.371094 203.683594 384.371094 194.558594 L 384.371094 148.617188 C 384.371094 143.914062 384.035156 140.359375 383.382812 137.933594 C 382.722656 135.515625 381.773438 133.621094 380.539062 132.261719 C 379.3125 130.914062 377.742188 129.910156 375.855469 129.253906 C 373.960938 128.601562 370.804688 128.273438 366.394531 128.273438 L 366.394531 122.511719 L 410.371094 122.511719 L 410.371094 128.273438 L 407.246094 128.273438 C 402.351562 128.273438 398.707031 129.59375 396.304688 132.226562 C 393.90625 134.867188 392.714844 138.691406 392.714844 143.703125 L 392.714844 193.464844 C 392.714844 205.882812 389.164062 215.417969 382.066406 222.042969 C 374.078125 229.515625 363.457031 233.242188 350.195312 233.242188 C 338.710938 233.242188 329.679688 231.613281 323.097656 228.359375 C 316.519531 225.089844 311.742188 220.402344 308.769531 214.292969 C 306.523438 209.65625 305.40625 203.804688 305.40625 196.75 L 305.40625 133.988281 C 305.40625 132.222656 304.789062 130.820312 303.574219 129.800781 C 302.351562 128.78125 300.523438 128.273438 298.089844 128.273438 L 289.71875 128.273438 L 289.71875 122.511719 "/>
<path style=" stroke:none;fill-rule:nonzero;fill:rgb(6.355286%,25.868225%,47.70813%);fill-opacity:1;" d="M 878.996094 90.183594 C 876.472656 90.675781 874.152344 90.894531 872.152344 90.894531 C 864.335938 90.894531 862.652344 87.375 862.652344 78.480469 L 862.652344 43.09375 L 878.996094 43.09375 L 878.996094 27.773438 L 862.652344 27.773438 L 862.652344 4.929688 L 839.824219 9.109375 L 839.824219 27.773438 L 829.660156 27.773438 L 829.660156 43.09375 L 839.824219 43.09375 L 839.824219 80.933594 C 839.824219 100.242188 847.183594 108.667969 865.710938 108.667969 C 869.9375 108.667969 874.398438 108.179688 878.996094 107.320312 L 878.996094 90.183594 "/>
<path style=" stroke:none;fill-rule:nonzero;fill:rgb(6.355286%,25.868225%,47.70813%);fill-opacity:1;" d="M 909.609375 201.15625 C 909.191406 208.878906 907.726562 214.414062 905.226562 217.769531 C 902.71875 221.125 899.695312 222.800781 896.144531 222.800781 C 893.171875 222.800781 890.710938 221.699219 888.785156 219.492188 C 886.855469 217.289062 885.890625 214.109375 885.890625 209.960938 L 885.890625 162.023438 L 908.902344 162.023438 L 908.902344 155.65625 L 885.890625 155.65625 L 885.890625 125.179688 L 880.503906 125.179688 C 880.023438 135.421875 877.523438 143.4375 872.976562 149.183594 C 869.824219 153.121094 865.230469 155.597656 859.207031 156.605469 L 859.207031 162.023438 L 872.253906 162.023438 L 872.253906 212.171875 C 872.253906 217.648438 873.984375 222.074219 877.460938 225.445312 C 880.929688 228.824219 885.738281 230.507812 891.890625 230.507812 C 898.5625 230.507812 903.996094 228.105469 908.1875 223.292969 C 912.375 218.484375 914.628906 211.101562 914.941406 201.15625 L 909.609375 201.15625 "/>
<path style=" stroke:none;fill-rule:nonzero;fill:rgb(6.355286%,25.868225%,47.70813%);fill-opacity:1;" d="M 736.613281 153.007812 C 723.800781 153.007812 713.007812 167.980469 708.570312 184.722656 L 708.570312 154.363281 L 681.984375 155.644531 L 681.984375 161.417969 L 688.339844 161.417969 C 691.136719 161.417969 693.28125 162.230469 694.777344 163.878906 C 696.285156 165.523438 697.03125 168.105469 697.03125 171.660156 L 697.03125 218.332031 C 697.03125 219.6875 696.402344 220.847656 695.152344 221.808594 C 693.898438 222.773438 692.042969 223.253906 689.59375 223.253906 L 682.300781 223.253906 L 682.300781 229.015625 L 728.117188 229.015625 L 728.117188 223.253906 L 718.792969 223.253906 C 715.765625 223.253906 713.621094 222.789062 712.371094 221.84375 C 711.121094 220.902344 710.492188 219.546875 710.492188 217.777344 L 710.492188 204.171875 C 710.492188 190.082031 716.449219 166.019531 728.375 166.019531 C 731.628906 166.019531 730.976562 171.21875 737.480469 171.21875 C 742.683594 171.21875 746.367188 167.316406 746.367188 162.332031 C 746.367188 156.695312 741.816406 153.007812 736.613281 153.007812 "/>
<g clip-path="url(#clip1)" clip-rule="nonzero">
<path style=" stroke:none;fill-rule:nonzero;fill:rgb(6.355286%,25.868225%,47.70813%);fill-opacity:1;" d="M 0 0.175781 C 0 0.175781 0.00390625 63.46875 0.00390625 106.460938 C 0.00390625 262.847656 140.027344 328 140.027344 328 C 140.027344 328 280.050781 262.847656 280.050781 106.460938 C 280.050781 63.46875 280.054688 0.175781 280.054688 0.175781 L 0 0.175781 "/>
</g>
<path style=" stroke:none;fill-rule:nonzero;fill:rgb(100%,100%,100%);fill-opacity:1;" d="M 4.597656 4.835938 L 275.328125 4.835938 L 275.328125 106.503906 L 4.597656 106.503906 Z M 4.597656 4.835938 "/>
<path style=" stroke:none;fill-rule:nonzero;fill:rgb(100%,100%,100%);fill-opacity:1;" d="M 229.585938 209.730469 C 229.585938 200.890625 228.265625 192.160156 225.726562 183.769531 C 201.378906 199.722656 177.191406 203.984375 162.855469 195.25 C 163.648438 194.238281 164.125 192.96875 164.125 191.585938 C 164.125 188.296875 161.460938 185.632812 158.171875 185.632812 C 156.789062 185.632812 155.523438 186.109375 154.511719 186.898438 C 145.769531 172.566406 150.03125 148.375 165.988281 124.023438 C 157.59375 121.488281 148.867188 120.167969 140.027344 120.167969 C 131.1875 120.167969 122.460938 121.488281 114.066406 124.023438 C 130.023438 148.371094 134.28125 172.558594 125.546875 186.894531 C 124.535156 186.101562 123.265625 185.628906 121.882812 185.628906 C 118.59375 185.628906 115.929688 188.292969 115.929688 191.578125 C 115.929688 192.960938 116.40625 194.230469 117.195312 195.242188 C 102.859375 203.980469 78.671875 199.71875 54.320312 183.761719 C 51.785156 192.15625 50.464844 200.882812 50.464844 209.722656 L 50.472656 209.722656 C 50.472656 218.5625 51.789062 227.292969 54.328125 235.6875 C 78.675781 219.730469 102.867188 215.46875 117.199219 224.207031 C 116.40625 225.21875 115.929688 226.488281 115.929688 227.875 C 115.929688 231.160156 118.59375 233.828125 121.882812 233.828125 C 123.265625 233.828125 124.535156 233.351562 125.546875 232.558594 C 134.28125 246.894531 130.023438 271.082031 114.066406 295.429688 C 122.460938 297.964844 131.1875 299.285156 140.027344 299.285156 C 148.867188 299.285156 157.59375 297.964844 165.988281 295.429688 C 150.03125 271.082031 145.773438 246.894531 154.507812 232.558594 C 155.519531 233.351562 156.789062 233.828125 158.171875 233.828125 C 161.460938 233.828125 164.125 231.160156 164.125 227.875 C 164.125 226.492188 163.648438 225.222656 162.859375 224.214844 C 177.191406 215.472656 201.382812 219.734375 225.734375 235.691406 C 228.269531 227.296875 229.589844 218.570312 229.589844 209.730469 L 229.585938 209.730469 "/>
<path style=" stroke:none;fill-rule:nonzero;fill:rgb(6.355286%,25.868225%,47.70813%);fill-opacity:1;" d="M 156.226562 209.722656 C 156.226562 218.671875 148.972656 225.921875 140.027344 225.921875 C 131.082031 225.921875 123.832031 218.671875 123.832031 209.722656 C 123.832031 200.777344 131.082031 193.527344 140.027344 193.527344 C 148.972656 193.527344 156.226562 200.777344 156.226562 209.722656 "/>
<path style=" stroke:none;fill-rule:nonzero;fill:rgb(89.752197%,8.563232%,20.941162%);fill-opacity:1;" d="M 54.246094 67.054688 C 47.347656 61.941406 38.648438 61.957031 37.136719 61.957031 C 38.847656 58.800781 40.027344 58.054688 43.027344 56.347656 C 32.183594 56.347656 30.945312 53.410156 30.570312 50.90625 C 33.488281 51.320312 36.855469 50.496094 38.203125 49.148438 C 30.335938 48.742188 27.75 43.429688 26.835938 41.5625 C 32.953125 41.109375 32.882812 38.015625 32.0625 36.125 C 31.441406 34.679688 29.359375 33.46875 27.277344 34.117188 C 25.484375 34.667969 23.664062 37.246094 21.777344 37.398438 C 20.023438 37.535156 19.792969 35.765625 19.792969 34.6875 C 17.804688 34.6875 16.097656 35.664062 14.835938 36.925781 C 15.308594 29.839844 22.859375 27.015625 27.636719 27.859375 C 27.636719 27.859375 27.414062 24.867188 26.453125 23.90625 C 24.996094 22.449219 23.140625 22.609375 21.785156 21.609375 C 20.875 20.9375 20.867188 19.394531 22.382812 18.660156 C 20.878906 16.691406 16.789062 16.503906 16.789062 16.503906 C 25.257812 10.21875 30.820312 18.222656 32.601562 24.359375 C 34.867188 21.550781 35.097656 19.976562 34.804688 18.425781 C 34.480469 16.71875 33.113281 15.492188 33.261719 14.511719 C 33.480469 13.058594 35.0625 13.351562 35.0625 13.351562 C 34.871094 11.089844 33.042969 9.324219 31.5 8.507812 C 31.5 8.507812 38.335938 7.902344 41.089844 14.90625 C 43.652344 21.421875 40.324219 25.472656 40.324219 25.472656 C 40.324219 25.472656 42.871094 25.78125 43.945312 24.410156 C 45.097656 22.953125 44.4375 21.121094 45.609375 20.121094 C 46.789062 19.113281 48.101562 21.023438 48.101562 21.023438 C 49.378906 19.746094 48.519531 16.613281 48.265625 15.742188 C 48.265625 15.742188 51.839844 17.988281 51.394531 22.160156 C 51.09375 24.960938 48.285156 27.289062 47.105469 28.820312 C 45.921875 30.351562 42.484375 33.675781 48.027344 43.261719 C 51.417969 49.125 54.753906 51.460938 56.574219 52.308594 C 55.464844 54.515625 53.382812 60.632812 54.246094 67.054688 "/>
<path style=" stroke:none;fill-rule:nonzero;fill:rgb(89.752197%,8.563232%,20.941162%);fill-opacity:1;" d="M 27.289062 79.929688 C 20.664062 80.410156 8.820312 83.097656 14.871094 95.351562 C 14.871094 92.660156 15.757812 90.273438 17.332031 89.5 C 17.882812 91.382812 19.28125 91.714844 20.332031 90.980469 C 21.304688 90.300781 22.484375 88.21875 23.640625 87.425781 C 24.75 86.667969 26.261719 86.234375 28.242188 86.789062 C 22.851562 95.847656 29.140625 104.617188 34.042969 104.121094 C 31.246094 102.1875 31.359375 99.625 31.441406 98.703125 C 31.441406 98.703125 33.175781 99.09375 33.839844 97.71875 C 34.375 96.609375 33.507812 94.402344 34.082031 92.34375 C 34.492188 90.882812 35.808594 90.234375 36.886719 90.398438 C 38.570312 90.660156 39.160156 92.1875 39.097656 93.546875 C 39.019531 95.28125 38.105469 96.789062 38.105469 96.789062 C 41.023438 98.890625 49.109375 96.355469 53.917969 92.183594 C 53.917969 93.4375 53.792969 95.691406 52.546875 98.019531 C 56.871094 98.765625 64.363281 94.097656 66.5625 90.167969 C 66.851562 92.058594 66.453125 96.113281 64.269531 98.707031 C 67.542969 99.46875 76.441406 96.769531 83.34375 89.867188 C 83.757812 93.742188 89.554688 99.363281 95.964844 96.339844 C 95.964844 96.339844 93.019531 94.691406 93.019531 92.378906 C 93.019531 88.597656 97.171875 85.71875 102.328125 83.464844 C 108.320312 80.847656 118.132812 79.660156 128.066406 74.945312 C 146.367188 66.261719 149.644531 57.863281 164.695312 57.863281 C 171.257812 57.863281 177.699219 59.382812 180.992188 64.789062 C 184.277344 70.191406 183.449219 76.578125 187.140625 80.097656 C 190.835938 83.625 197.277344 81.03125 200.769531 79.960938 C 209.527344 77.269531 222.382812 71.882812 230.214844 71.339844 C 238.03125 70.796875 240.113281 76.652344 240.28125 77.125 C 240.886719 78.832031 240.167969 79.898438 239.039062 79.824219 C 236.429688 79.664062 231.683594 78.460938 228.9375 80.019531 C 224.996094 82.253906 226.105469 87.660156 226.105469 87.660156 C 227.109375 86.160156 229.523438 83.636719 232.097656 83.730469 C 232.179688 83.96875 232.628906 86.871094 235.03125 85.796875 C 236.65625 85.070312 238.472656 82.847656 241.644531 83.410156 C 238.601562 86.035156 232.914062 96.316406 241.023438 100.703125 C 239.824219 98.902344 239.652344 95.574219 240.625 94.011719 C 240.625 94.011719 242.96875 95.554688 244.496094 93.316406 C 245.128906 92.390625 244.261719 89.828125 244.785156 87.808594 C 245.242188 86.046875 246.972656 85.027344 246.972656 85.027344 C 247.632812 87.222656 251.6875 94.078125 262.25 93.464844 C 259.820312 92.507812 258.3125 90.816406 257.90625 89.601562 C 259.152344 88.722656 259.730469 86.636719 258.460938 86.121094 C 257.277344 85.640625 254.847656 86.058594 253.707031 84.480469 C 252.367188 82.648438 252.675781 79.765625 252.675781 79.765625 C 256.300781 81.355469 265.457031 84.953125 269.148438 76.761719 C 268.035156 77.5625 264.855469 78.523438 263.046875 78.367188 C 262.824219 77.425781 261.820312 74.835938 259.886719 74.691406 C 257.34375 74.5 255.507812 75.285156 253.105469 75.609375 C 251.410156 75.835938 250.441406 74.921875 250.03125 74.023438 C 249.679688 73.257812 250.019531 72.1875 250.417969 71.625 C 251.277344 70.386719 253.234375 69.597656 253.234375 69.597656 C 251.882812 66.910156 247.328125 68.0625 246.339844 68.238281 C 246.539062 66.699219 248.089844 63.949219 251.070312 62.722656 C 249.957031 60.804688 246.515625 59.089844 240.886719 60.035156 C 241.539062 57.707031 243.507812 55.207031 245.1875 54.621094 C 242.152344 52.867188 235.027344 53.597656 228.609375 58.285156 C 228.863281 56.867188 228.675781 52.703125 226.734375 50.949219 C 226.734375 50.949219 218.371094 61.480469 210.15625 60.082031 C 201.953125 58.683594 203.242188 48.820312 203.242188 48.820312 C 203.242188 48.820312 219.445312 51.390625 227.289062 47.765625 C 235.136719 44.136719 235.074219 38.535156 241.644531 35.117188 C 246.929688 32.367188 253.230469 34.640625 253.230469 34.640625 C 252.265625 29.222656 241.996094 24.972656 234.101562 33.273438 C 234.101562 33.273438 233.910156 20.757812 214.570312 21.742188 C 207.53125 22.105469 194.394531 26.050781 182.378906 28.246094 C 170.652344 30.390625 153.234375 31.429688 145.820312 31.429688 C 138.40625 31.429688 131.125 29.808594 131.125 24.960938 C 131.125 20.113281 136.484375 19.433594 140.027344 19.433594 C 145.652344 19.433594 153.535156 22.75 159.886719 24.945312 C 164.417969 26.515625 168.882812 26.542969 171.335938 26.542969 C 177.984375 26.542969 186.351562 23.214844 190.546875 21.574219 C 194.738281 19.929688 198.042969 18.898438 206.078125 19.582031 C 203.570312 16.304688 194.304688 12.441406 183.585938 18.144531 C 182.613281 16.429688 184.65625 13.199219 188.820312 11.867188 C 186.917969 10.660156 180.835938 8.984375 173.496094 9.175781 C 161.886719 9.472656 158.214844 14.9375 146.925781 14.457031 C 135.632812 13.980469 125.296875 15.847656 125.296875 24.382812 C 125.296875 31.140625 133.570312 36.347656 146.945312 36.882812 C 146.605469 37.949219 144.792969 39.253906 144.21875 39.605469 C 148.828125 40.351562 155.625 39.789062 164.394531 34.101562 C 164.632812 35.050781 163.84375 37.472656 162.890625 38.105469 C 166.046875 38.105469 171.914062 36.5 178.996094 32.074219 C 178.996094 33.023438 178.859375 34.722656 177.15625 36.425781 C 185.414062 35.847656 189.925781 31.660156 195.539062 29.886719 C 203.007812 27.527344 227.125 21.921875 227.125 35.277344 C 227.125 38.472656 225.566406 43.035156 217.253906 43.035156 C 208.945312 43.035156 194.703125 39.222656 191.941406 38.742188 C 189.175781 38.265625 186.09375 37.589844 178.820312 38.609375 C 172.039062 39.558594 121.128906 46.835938 112.796875 48.019531 C 112.796875 50.753906 112.898438 59.320312 117.390625 63.210938 C 113.851562 64.847656 110.101562 65.96875 103.523438 62.988281 C 103.007812 65.191406 103.527344 71.5625 106.675781 74.984375 C 104.039062 75.847656 98.59375 77.230469 93.394531 73.851562 C 91.300781 77.59375 85.757812 87.628906 70.738281 84.539062 C 71.695312 83.816406 74.332031 78.578125 74.332031 77.636719 C 71.351562 79.839844 63.464844 84.144531 48.796875 82.441406 C 44.351562 81.929688 39.675781 80.53125 38.398438 77.671875 C 37.039062 74.667969 38.953125 70.394531 38.015625 68.011719 C 36.046875 63.011719 30.703125 63.511719 30.703125 63.511719 C 31.289062 64.007812 33.3125 65.242188 33.722656 67.027344 C 33.722656 67.027344 31.578125 66.890625 31.46875 69.339844 C 31.316406 72.65625 32.445312 76.304688 32.445312 76.304688 C 26.269531 70.132812 16.097656 63.5 12.820312 74.390625 C 14.160156 72.871094 15.816406 72 17.695312 72.25 C 17.695312 72.25 16.480469 74.140625 18.882812 75.792969 C 20.003906 76.566406 22.808594 75.71875 24.234375 76.371094 C 25.882812 77.121094 27.378906 79.921875 27.378906 79.921875 "/>
<path style=" stroke:none;fill-rule:nonzero;fill:rgb(89.752197%,8.563232%,20.941162%);fill-opacity:1;" d="M 162.488281 76.695312 C 163.78125 77.613281 163.171875 78.628906 162.550781 79.214844 C 161.925781 79.792969 155.226562 84.183594 150.886719 82.835938 C 147.570312 81.804688 147.578125 75.863281 142.996094 73.9375 C 139.3125 72.390625 135.195312 75.179688 135.195312 75.179688 C 136.824219 75.328125 138.738281 75.902344 139.398438 76.308594 C 139.398438 76.308594 138.648438 77.648438 140.023438 78.394531 C 141.398438 79.152344 142.402344 78.789062 143.398438 79.894531 C 144.667969 81.304688 143.628906 84.199219 143.628906 84.199219 C 133.722656 76.433594 124.523438 81.710938 123.871094 86.734375 C 124.738281 86.152344 127.25 84.8125 128.707031 85.128906 C 128.707031 85.128906 128.738281 86.632812 129.976562 86.957031 C 131.417969 87.335938 133.160156 86.007812 135.261719 86.332031 C 137.488281 86.683594 139.378906 88.695312 139.378906 88.695312 C 136.25 89.140625 129.492188 94.128906 134.566406 102.089844 C 134.457031 100.652344 134.621094 98.777344 135.5625 98.140625 C 135.5625 98.140625 137.292969 98.992188 138.449219 98.015625 C 139.601562 97.039062 139.976562 94.671875 141.441406 92.96875 C 142.910156 91.265625 144.769531 91.144531 144.769531 91.144531 C 143.96875 95.523438 147.902344 104.117188 155.136719 102.332031 C 153.632812 101.457031 152.183594 99.605469 152.183594 98.585938 C 152.183594 98.585938 154.230469 97.851562 154.015625 96.75 C 153.652344 94.921875 150.898438 95.324219 150.898438 93.078125 C 150.898438 91.675781 152.105469 90.648438 153.992188 90.648438 C 158.375 90.648438 157.757812 96.234375 157.757812 96.234375 C 160.570312 95.957031 164.894531 92.730469 165.75 89.105469 C 167.347656 90.113281 168.035156 93.8125 167.839844 95.90625 C 171.449219 94.414062 174.328125 91.753906 174.328125 81.679688 C 177.210938 85.980469 184.773438 88.359375 190.25 84.585938 C 183.210938 83.449219 181.789062 76.171875 181.417969 74.847656 C 181.046875 73.523438 180.304688 67.617188 177.066406 64.378906 C 172.472656 59.785156 162.105469 60.113281 156.09375 62.007812 C 154.519531 62.503906 152.648438 63.488281 152.648438 66.5 C 152.648438 69.253906 153.234375 72.28125 157.496094 74.210938 C 160.421875 75.535156 161.808594 76.210938 162.488281 76.695312 "/>
<path style=" stroke:none;fill-rule:nonzero;fill:rgb(89.752197%,8.563232%,20.941162%);fill-opacity:1;" d="M 100.949219 39.457031 C 100.683594 40.835938 98.996094 41.484375 96.882812 41.082031 C 92.777344 40.292969 92.75 37.359375 94.070312 36.808594 C 94.574219 37.191406 95.847656 38.027344 96.992188 38.257812 C 98.722656 38.605469 99.460938 38.28125 100.574219 38.242188 C 101.097656 38.222656 101.058594 38.902344 100.949219 39.457031 Z M 87.980469 56.117188 C 86.773438 58.542969 81.734375 62.117188 78.832031 60.554688 C 80.136719 60.125 83.613281 57.578125 85.441406 54.441406 C 84.882812 54.160156 83.816406 53.46875 83.542969 53.09375 C 82.472656 53.5625 80.539062 55.496094 78.96875 57.570312 C 78.585938 56.40625 79.5 53.277344 80.566406 51.628906 C 79.703125 51.429688 78.308594 50.84375 77.75 50.5625 C 76.3125 53.894531 76.21875 58.148438 76.648438 59.457031 C 73.671875 58.046875 73.546875 51.871094 74.78125 49.457031 C 71.027344 46.828125 72.257812 43.667969 73.40625 43.039062 C 73.433594 44.066406 74.367188 46.257812 77.601562 47.890625 C 80.839844 49.523438 82.160156 48.398438 82.527344 47.671875 C 83.1875 46.359375 81.570312 45.136719 80.425781 43.886719 C 79.308594 42.667969 79.050781 40.734375 79.824219 39.792969 C 80.804688 38.601562 82.476562 38.847656 83.289062 39.449219 C 79.320312 40.15625 84.113281 44.3125 85.34375 44.929688 C 86.574219 45.550781 92.765625 46.9375 90.976562 43.324219 C 91.9375 43.621094 93.132812 44.816406 92.757812 46.316406 C 92.460938 47.496094 90.75 48.4375 89.109375 48.265625 C 87.421875 48.089844 85.476562 47.515625 84.816406 48.828125 C 84.449219 49.554688 84.328125 51.28125 87.566406 52.914062 C 90.800781 54.546875 93.121094 53.992188 93.964844 53.40625 C 94.136719 54.703125 92.328125 57.570312 87.980469 56.117188 Z M 80.46875 29.128906 C 80.847656 28.710938 81.371094 28.273438 81.667969 28.707031 C 82.296875 29.625 82.472656 30.414062 83.785156 31.597656 C 84.652344 32.378906 86.078125 32.90625 86.6875 33.085938 C 87.027344 34.476562 84.652344 36.199219 81.578125 33.363281 C 79.996094 31.90625 79.515625 30.164062 80.46875 29.128906 Z M 118.855469 26.304688 C 119.082031 25.898438 119.523438 24.226562 117.957031 23.746094 C 115.679688 23.054688 110.945312 23.816406 110.945312 23.816406 C 113.152344 21.277344 112.222656 14.96875 109.542969 13.238281 C 109.195312 16.089844 106.464844 17.703125 103.828125 17.019531 C 100.535156 16.164062 101.800781 11.519531 102.785156 9.566406 C 100.25 9.40625 95.917969 10.042969 92.285156 15.3125 C 91.328125 8.734375 84.59375 7.460938 82.96875 7.269531 C 84.316406 10.078125 82.683594 14.421875 80.234375 13.515625 C 79.746094 9.097656 75.136719 7.230469 74.804688 10.3125 C 74.253906 15.425781 69.496094 21.660156 65.578125 21.992188 C 65.21875 24.832031 68.546875 26.386719 70.441406 26.429688 C 65.683594 33.386719 58.84375 32.007812 55.101562 30.726562 C 54.980469 33.382812 57.867188 38.972656 63.40625 38.972656 C 60.503906 43.367188 54.390625 43.699219 52.558594 42.773438 C 51.742188 46.996094 58.59375 50.761719 60.453125 51.085938 C 54.835938 60.0625 56.75 70.957031 59.875 75.296875 C 59.875 75.296875 61.066406 72.222656 62.753906 70.636719 C 64.179688 69.277344 65.242188 68.996094 66.164062 69.464844 C 67.472656 70.121094 67.085938 72.132812 66.34375 73.609375 C 64.980469 76.304688 61.976562 79.003906 61.976562 79.003906 C 67.074219 80.207031 76.410156 74.753906 77.574219 72.445312 C 78.496094 75.238281 76.644531 79.976562 75.339844 82.234375 C 85.257812 83.296875 90.199219 74.664062 92.339844 69.40625 C 95.730469 73.199219 100.035156 73.628906 102.390625 73.097656 C 99.164062 67.066406 100.601562 60.835938 102.039062 58.621094 C 105.40625 61.890625 110.363281 62.578125 112.792969 61.777344 C 109.589844 57.34375 109.53125 46.378906 110.445312 42.550781 C 112.691406 44.054688 115.636719 44.464844 116.859375 43.621094 C 116.859375 43.621094 114.8125 39.855469 115.390625 34.421875 C 115.753906 31.019531 117.894531 28.105469 118.855469 26.304688 "/>
</g>
</svg>
